<svg width="11" height="22" viewBox="0 0 11 22" fill="none" xmlns="http://www.w3.org/2000/svg">
<path d="M5.15334 18.9124C4.75431 18.9124 4.41124 18.7713 4.12414 18.4891C3.83703 18.2019 3.69348 17.8564 3.69348 17.4526C3.69348 17.0535 3.83703 16.7129 4.12414 16.4307C4.41124 16.1436 4.75431 16 5.15334 16C5.5475 16 5.88813 16.1436 6.17523 16.4307C6.4672 16.7129 6.61319 17.0535 6.61319 17.4526C6.61319 17.7202 6.54506 17.9659 6.40881 18.1898C6.27742 18.4088 6.10224 18.5839 5.88326 18.7153C5.66428 18.8467 5.42098 18.9124 5.15334 18.9124Z" fill="white"/>
<path d="M4.05109 14.854V14.7153C4.06083 13.8102 4.15085 13.09 4.32117 12.5547C4.49635 12.0195 4.74453 11.5864 5.06569 11.2555C5.38686 10.9246 5.77372 10.6229 6.22628 10.3504C6.51825 10.1655 6.78102 9.95864 7.0146 9.72993C7.24818 9.50122 7.43309 9.23844 7.56934 8.94161C7.7056 8.64477 7.77372 8.3163 7.77372 7.95621C7.77372 7.52311 7.67153 7.14842 7.46715 6.83212C7.26277 6.51581 6.99027 6.27251 6.64964 6.10219C6.31387 5.92701 5.93917 5.83942 5.52555 5.83942C5.15085 5.83942 4.79319 5.91728 4.45255 6.07299C4.11192 6.22871 3.82968 6.47202 3.60584 6.80292C3.382 7.12895 3.25304 7.54988 3.21898 8.06569H1C1.03406 7.18978 1.25547 6.45012 1.66423 5.84672C2.07299 5.23844 2.61314 4.77859 3.28467 4.46715C3.96107 4.15572 4.70803 4 5.52555 4C6.42092 4 7.20438 4.16788 7.87591 4.50365C8.54745 4.83455 9.06813 5.29927 9.43796 5.89781C9.81265 6.49148 10 7.18492 10 7.9781C10 8.52311 9.91484 9.0146 9.74453 9.45256C9.57421 9.88564 9.3309 10.2725 9.0146 10.6131C8.70316 10.9538 8.32847 11.2555 7.89051 11.5182C7.47689 11.7762 7.14112 12.0438 6.88321 12.3212C6.63017 12.5985 6.44526 12.927 6.32847 13.3066C6.21168 13.6861 6.14842 14.1557 6.13869 14.7153V14.854H4.05109Z" fill="white"/>
</svg>
