<svg width="100" height="100" viewBox="0 0 100 100" fill="none" xmlns="http://www.w3.org/2000/svg">
<path fill-rule="evenodd" clip-rule="evenodd" d="M12.335 49.9997C12.335 29.1969 29.1989 12.333 50.0016 12.333C70.8044 12.333 87.6683 29.1969 87.6683 49.9997C87.6683 70.8024 70.8044 87.6663 50.0016 87.6663C29.1989 87.6663 12.335 70.8024 12.335 49.9997ZM50.0016 4.33301C24.7806 4.33301 4.33496 24.7787 4.33496 49.9997C4.33496 75.2207 24.7806 95.6663 50.0016 95.6663C75.2226 95.6663 95.6683 75.2207 95.6683 49.9997C95.6683 24.7787 75.2226 4.33301 50.0016 4.33301ZM30.935 55.133C32.6972 53.8113 35.1951 54.1637 36.5235 55.9178L36.5439 55.9438C36.5696 55.9763 36.6178 56.0362 36.6878 56.1196C36.828 56.2867 37.0543 56.5462 37.3623 56.8675C37.9814 57.5136 38.9111 58.3893 40.1148 59.2648C42.5376 61.0269 45.8956 62.6664 50.0018 62.6664C54.1081 62.6664 57.466 61.0269 59.8889 59.2648C61.0926 58.3893 62.0223 57.5136 62.6414 56.8675C62.9493 56.5462 63.1756 56.2867 63.3159 56.1196C63.3859 56.0362 63.434 55.9763 63.4598 55.9438L63.4801 55.9179C64.8085 54.1637 67.3064 53.8113 69.0687 55.133C70.836 56.4585 71.1942 58.9657 69.8687 60.733L66.6687 58.333C69.8687 60.733 69.8677 60.7343 69.8667 60.7356L69.8646 60.7384L69.86 60.7446L69.8489 60.7592L69.8195 60.7976C69.7968 60.8272 69.7676 60.8646 69.7321 60.9094C69.6612 60.999 69.5649 61.1181 69.4437 61.2626C69.2015 61.5512 68.8581 61.9428 68.4173 62.4027C67.5391 63.3192 66.2551 64.5267 64.5942 65.7347C61.2879 68.1393 56.3123 70.6664 50.0018 70.6664C43.6913 70.6664 38.7158 68.1393 35.4094 65.7347C33.7485 64.5267 32.4646 63.3192 31.5863 62.4027C31.1456 61.9428 30.8022 61.5512 30.56 61.2626C30.4387 61.1181 30.3424 60.999 30.2715 60.9094L30.226 60.8516L30.1841 60.7976L30.1548 60.7592L30.1437 60.7446L30.139 60.7384L30.1369 60.7356C30.1359 60.7343 30.135 60.733 33.335 58.333L30.135 60.733C28.8095 58.9657 29.1677 56.4585 30.935 55.133ZM33.501 37.4995C33.501 35.2904 35.2918 33.4995 37.501 33.4995H37.5441C39.7532 33.4995 41.5441 35.2904 41.5441 37.4995C41.5441 39.7087 39.7532 41.4995 37.5441 41.4995H37.501C35.2918 41.4995 33.501 39.7087 33.501 37.4995ZM62.501 33.4995C60.2918 33.4995 58.501 35.2904 58.501 37.4995C58.501 39.7087 60.2918 41.4995 62.501 41.4995H62.5441C64.7532 41.4995 66.5441 39.7087 66.5441 37.4995C66.5441 35.2904 64.7532 33.4995 62.5441 33.4995H62.501Z" fill="#A0A0A0"/>
</svg>
