<svg width="256" height="256" viewBox="0 0 256 256" fill="none" xmlns="http://www.w3.org/2000/svg">
<path fill-rule="evenodd" clip-rule="evenodd" d="M117.289 50.5849C118.942 46.4773 115.918 42 111.49 42H58.5549C56.0042 42 53.7093 43.55 52.7567 45.9162L21.4585 123.657C19.8048 127.764 22.8287 132.242 27.2567 132.242H72.2521C76.6801 132.242 79.704 136.719 78.0503 140.827L51.9345 205.695C50.2808 209.802 53.3048 214.28 57.7328 214.28H110.668C113.219 214.28 115.514 212.73 116.467 210.364L147.765 132.623C149.418 128.515 146.395 124.038 141.967 124.038H96.9712C92.5432 124.038 89.5192 119.561 91.173 115.453L117.289 50.5849Z" fill="#C0C0C0"/>
<path fill-rule="evenodd" clip-rule="evenodd" d="M203.233 50.5849C204.887 46.4773 201.863 42 197.435 42H144.5C141.949 42 139.654 43.55 138.701 45.9162L107.403 123.657C105.749 127.764 108.773 132.242 113.201 132.242H158.197C162.625 132.242 165.649 136.719 163.995 140.827L137.879 205.695C136.225 209.802 139.249 214.28 143.677 214.28H196.613C199.164 214.28 201.459 212.73 202.411 210.364L233.709 132.623C235.363 128.515 232.339 124.038 227.911 124.038H182.916C178.488 124.038 175.464 119.561 177.118 115.453L203.233 50.5849Z" fill="#C0C0C0"/>
</svg>
