<svg width="256" height="256" viewBox="0 0 256 256" fill="none" xmlns="http://www.w3.org/2000/svg">
<path d="M91.9226 36C87.4417 36 83.5396 39.0591 82.47 43.4105L64.286 117.389C62.7782 123.523 67.4219 129.446 73.7386 129.446H119.073C122.863 129.446 125.649 133 124.745 136.681L107.116 208.401C105.608 214.535 110.251 220.459 116.568 220.459H164.077C168.558 220.459 172.46 217.4 173.53 213.048L191.714 139.07C193.222 132.936 188.578 127.013 182.261 127.013H136.927C133.137 127.013 130.351 123.459 131.255 119.778L148.884 48.0574C150.392 41.9233 145.749 36 139.432 36H91.9226Z" fill="#C0C0C0"/>
</svg>
