<svg width="256" height="256" viewBox="0 0 256 256" fill="none" xmlns="http://www.w3.org/2000/svg">
<path d="M87.413 24C82.3719 24 77.9821 27.4414 76.7788 32.3368L56.3218 115.562C54.6255 122.463 59.8496 129.127 66.956 129.127H117.957C122.221 129.127 125.355 133.125 124.338 137.266L104.505 217.951C102.809 224.852 108.033 231.516 115.139 231.516H168.587C173.628 231.516 178.018 228.075 179.221 223.179L199.678 139.954C201.374 133.053 196.15 126.389 189.044 126.389H138.043C133.779 126.389 130.644 122.391 131.662 118.25L151.495 37.5646C153.191 30.6637 147.967 24 140.861 24H87.413Z" fill="#080808"/>
</svg>
