<svg width="250" height="250" viewBox="0 0 250 250" fill="none" xmlns="http://www.w3.org/2000/svg">
<rect width="250" height="250" rx="34.7222" fill="#080808"/>
<path d="M88.9226 33C84.4417 33 80.5396 36.0591 79.47 40.4105L61.286 114.389C59.7782 120.523 64.4219 126.446 70.7386 126.446H116.073C119.863 126.446 122.649 130 121.745 133.681L104.116 205.401C102.608 211.535 107.251 217.459 113.568 217.459H161.077C165.558 217.459 169.46 214.4 170.53 210.048L188.714 136.07C190.222 129.936 185.578 124.013 179.261 124.013H133.927C130.137 124.013 127.351 120.459 128.255 116.778L145.884 45.0574C147.392 38.9233 142.749 33 136.432 33H88.9226Z" fill="white"/>
</svg>
