<svg width="256" height="256" viewBox="0 0 256 256" fill="none" xmlns="http://www.w3.org/2000/svg">
<path d="M81.6515 10C75.9302 10 70.9481 13.9058 69.5825 19.4617L46.3652 113.917C44.4401 121.749 50.369 129.312 58.4342 129.312H116.317C121.156 129.312 124.714 133.849 123.558 138.548L101.05 230.121C99.1245 237.953 105.053 245.516 113.119 245.516H173.778C179.5 245.516 184.482 241.61 185.847 236.054L209.065 141.599C210.99 133.767 205.061 126.204 196.996 126.204H139.113C134.274 126.204 130.716 121.667 131.871 116.968L154.38 25.3949C156.305 17.5628 150.376 10 142.311 10H81.6515Z" fill="#080808"/>
</svg>
