<svg width="256" height="256" viewBox="0 0 256 256" fill="none" xmlns="http://www.w3.org/2000/svg">
<path fill-rule="evenodd" clip-rule="evenodd" d="M39.8887 6C21.1723 6 5.99976 21.1726 5.99976 39.8889V216.111C5.99976 234.828 21.1723 250 39.8887 250H216.111C234.827 250 250 234.828 250 216.111V39.8889C250 21.1726 234.827 6 216.111 6H39.8887ZM83.5627 45.4407C84.6066 41.1937 88.415 38.2081 92.7884 38.2081H139.158C145.323 38.2081 149.855 43.9892 148.383 49.9761L131.177 119.976C130.294 123.568 133.014 127.037 136.713 127.037H180.959C187.124 127.037 191.657 132.818 190.185 138.805L172.437 211.007C171.393 215.255 167.585 218.24 163.212 218.24H116.842C110.677 218.24 106.145 212.459 107.617 206.472L124.823 136.472C125.706 132.88 122.986 129.412 119.287 129.412H75.0408C68.8756 129.412 64.3434 123.631 65.815 117.644L83.5627 45.4407Z" fill="#080808"/>
</svg>
